<svg id="Layer_1" data-name="Layer 1" xmlns="http://www.w3.org/2000/svg" viewBox="0 0 807.36 820.101">
  <defs>
    <style>
      .cls-1 {
        fill: #282828;
      }
    </style>
  </defs>
  <title>c9f2b55c-ab95-4429-8950-83f82ac0d0c1</title>
  <g>
    <path class="cls-1" d="M6.506,630.9c1,.677,2.107.458,3.162.458q393.437.016,786.873.01c.8,0,1.6.025,2.4-.017.413-.022,1.029.177,1.017-.607C798.141,630.344,8.781,630.29,6.506,630.9Zm.209-21.054a.853.853,0,0,0,.917.506q387.678-.114,775.356-.146c.05,0,.118-.079.147-.137.146-.285-.3-.092.061-.278a2.947,2.947,0,0,0-2.072-.355C732.342,608.874,8.925,609.227,6.716,609.845Zm779.313-35.064c-.915-.661-1.946-.453-2.926-.453q-383.943-.015-767.886-.009c-.72,0-1.441-.022-2.159.016-.429.023-1.03-.117-.985.657C14.1,575.4,784.067,575.388,786.028,574.781ZM766.808,560.91a5.65,5.65,0,0,0-3.389-.5q-370.068-.019-740.136-.012c-.64,0-1.282-.028-1.919.016-.416.029-1.022-.162-1.032.6C22.326,561.5,764.515,561.488,766.808,560.91Zm-745.682-21.2c.331.271.435.427.559.444a8.867,8.867,0,0,0,1.194.074q361.991-.043,723.982-.1a.333.333,0,0,0,.216-.1c.221-.232-.3-.117.012-.216-.13-.5-.549-.5-.938-.532C740.965,538.852,22.945,539.211,21.126,539.714ZM729.348,490.6c-2.117-.5-702.845-.45-704.643.055a.61.61,0,0,0,.685.513q351.782-.014,703.563-.056A.467.467,0,0,0,729.348,490.6ZM22.937,525.316v.765a9.874,9.874,0,0,0,2.988.159q348.475.01,696.949.006c.72,0,1.442.026,2.159-.015.42-.024,1.015.169,1.093-.915ZM36.59,456.057a2.709,2.709,0,0,0,1.616.217q348.548-.112,697.1-.129a.291.291,0,0,0,.193-.126c.183-.263-.321-.109-.028-.234a.508.508,0,0,0-.513-.4q-348.918,0-697.836.023C36.905,455.412,36.655,455.519,36.59,456.057Zm4.949-14.226c.359.249.477.4.6.4q346.278.049,692.555.073a8.352,8.352,0,0,0,1.175-.139.3.3,0,0,0,.2-.121c.034-.059.008-.154.008-.419-.353-.344-.91-.252-1.428-.268C714.524,440.741,43.9,441.125,41.539,441.832ZM76.058,273.707a5.514,5.514,0,0,0,3.408.529q311.026.019,622.052.012c.64,0,1.282.024,1.919-.017.429-.028,1.031.085.93-.693C701.862,273.159,78.248,273.237,76.058,273.707Zm-2.394,28.157c.1.089.21.257.315.257q307.041.051,614.082.075a8.46,8.46,0,0,0,1.174-.135.3.3,0,0,0,.181-.131c.172-.269-.319-.1,0-.25-.239-.427-.648-.406-1.034-.406-204.844.111-409.687-.25-614.531.2C73.793,301.476,73.731,301.723,73.664,301.864Zm14.888-14.1a5.266,5.266,0,0,0,3.133.462q302.756.018,605.513.011c.64,0,1.281.011,1.92-.016.467-.02,1,0,1.034-.689C697.442,287.065,90.572,287.194,88.552,287.762ZM141.3,119.407l-.006.513a6.315,6.315,0,0,0,2.958.236q225.8.017,451.6.011c.64,0,1.281.024,1.919-.014.431-.025,1.009.146,1.122-.746ZM316.438,434.949c3.414.48,418.03.3,419.645-.18a.41.41,0,0,0-.428-.466q-209.222-.039-418.445-.043C316.913,434.261,316.565,434.309,316.438,434.949ZM173.423,98.565c.351.26.47.426.589.426q202.662.039,405.324.05a13.922,13.922,0,0,0,1.419-.119.359.359,0,0,0,.207-.116c.214-.238-.287-.118.04-.245-.341-.661-.961-.421-1.463-.436C559.617,97.528,175.755,97.889,173.423,98.565ZM806.272,638.033v-.279H5.86v.279Zm-17.279-13.947V623.8H7.329v.283ZM181.82,84.707a7.136,7.136,0,0,0,3.46.41q191.28.016,382.559.01c.64,0,1.281.019,1.92-.009.435-.019,1.029.154,1.016-.623C568.463,84,183.936,84.083,181.82,84.707ZM7.807,602.7v.263H784.044V602.7Zm777.35-6.827v-.293H8.747v.293Zm.488-6.827v-.286H9.723v.286ZM7.854,616.7v.291H783.236V616.7Zm778.29-34.778v-.286H10.661v.286ZM19.356,567.686v.275H781.7v-.275Zm742.3-13.652v-.283H20.808v.283Zm-9.116-7.15V546.6H20.752v.282Zm-11.705-13.944-.008-.282H22.183v.282ZM32.812,462.588l.118.279H735.136v-.279Zm693.8,56.406v-.281H24.1v.281Zm.442-7.123v-.278H25.1v.278ZM26.07,504.758v.3H727.561v-.3Zm.916-7.118v.282H728.05v-.282Zm708.537-48.7v-.285H39.454v.285ZM362.063,337.049c9.908.595,327.283.4,329.557-.271-1.167-.751-2.3-.457-3.342-.457q-158-.024-316-.008C368.94,336.314,365.58,336,362.063,337.049ZM703.51,267c-.964-1-2.013-.751-3.01-.751q-157.264-.018-314.528-.011c-.64,0-1.281-.024-1.919.012-.525.03-1.167-.094-1.328.75Zm.558,13.941v-.282H77.377v.282ZM74.7,294.573l.021.283H689.644v-.283ZM195.342,63.965H498.284c0-.456-.253-.636-.453-.637-100.471-.291-200.943-.074-301.415-.121A.921.921,0,0,0,195.342,63.965ZM345.069,337.021c-2.04-.877-4.038-.71-6.006-.71q-133.4-.008-266.791,0c-.64,0-1.28-.015-1.919.012-.458.019-1.01-.047-1.016.676C71.214,337.312,342.189,337.359,345.069,337.021Zm-4.409,20.656a2.205,2.205,0,0,0-1.578-.357q-134.462.053-268.925.119a.307.307,0,0,0-.2.12c-.195.254.319.113.023.229a.487.487,0,0,0,.5.412q134.709,0,269.419-.026C340.079,358.173,340.263,357.942,340.66,357.676ZM203.407,49.7c.363.242.485.394.607.394q134.151.04,268.3.054a9.361,9.361,0,0,0,1.18-.127.355.355,0,0,0,.207-.1c.211-.241-.31-.122.017-.247-.337-.642-.945-.445-1.453-.462C454.588,48.6,205.668,48.981,203.407,49.7ZM335.356,371.235q-132.872,0-265.491.007a10.64,10.64,0,0,0-1.411.16c-.051.007-.105.088-.132.146-.133.291.3.084.022.238,1.655.473,259.952.838,265.96.372C334.682,372.127,335.121,372.168,335.356,371.235ZM483.18,421.243q124.323,0,248.577-.006c.632,0,1.264-.09,1.895-.148.048,0,.1-.086.128-.143.129-.293-.312-.087.12-.316a6.52,6.52,0,0,0-3.107-.31q-122.157-.015-244.315-.008c-.8,0-1.6,0-2.4.046C483.684,420.382,483.291,420.517,483.18,421.243ZM76.092,266.729c2.48.58,248.334.555,250.5.077a7.748,7.748,0,0,0-3.272-.574C289.875,265.742,78.626,266.05,76.092,266.729ZM501.459,406.9a3.213,3.213,0,0,0,2.081.372c74.461-.084,148.921.192,223.382-.143.055,0,.128-.072.163-.128.169-.272-.3-.1-.014-.238-1.757-.6-188.119-.965-223.438-.429A2.476,2.476,0,0,0,501.459,406.9ZM473.506,238.411c.9,1.04,1.951.784,2.928.784q108.8.019,217.6.011c.56,0,1.121.018,1.679-.012.448-.024,1.012.079,1.041-.783Zm196.478-20.216c-.06-.406-.045-.511-.089-.559a.883.883,0,0,0-.356-.279,2.693,2.693,0,0,0-.712-.081c-73.814.058-147.628-.157-221.442.115a.3.3,0,0,0-.194.116c-.2.253.307.118,0,.239.174.489.605.444.982.444Q559.056,218.2,669.984,218.194ZM437.091,203.5c1.311.963,2.372.647,3.337.647q106.54.024,213.08.015c.64,0,1.281.019,1.919-.013.442-.023,1.01.1,1.059-.624C654.73,203.161,440.186,203.074,437.091,203.5ZM158.7,112.617c2.827.646,435.1.518,436.727,0Zm8.981-7.1v.273H588.806v-.273ZM489.7,252.634c.007.08-.017.192.027.233.111.1.252.253.381.253q103.627.049,207.255.068a4.869,4.869,0,0,0,2.126-.165.387.387,0,0,0,.16-.144c.166-.274-.281-.091,0-.238C697.788,252.076,491.612,252.071,489.7,252.634ZM721.955,392.9q.01-.264.02-.528-104.165,0-208.33.009c-.286,0-.659.015-.679.631.455.43,1.107.261,1.69.272C544,393.806,720.058,393.473,721.955,392.9ZM653.973,183.01c-1.1-1.157-2.188-.761-3.123-.761q-100.652-.031-201.3-.018c-.64,0-1.281-.02-1.919.018-.445.027-1,0-.9.761ZM126.064,134a9.38,9.38,0,0,0,2.875.15q100.162.012,200.325.007c.72,0,1.44.008,2.159-.016.476-.015.986-.025,1.051-.69-1.274-.219-204.82-.4-205.976-.158C126.282,133.336,126.064,133.5,126.064,134Zm-15.6,13.951a9.034,9.034,0,0,0,2.914.165q99.186.012,198.372.007c.64,0,1.282.033,1.918-.017.4-.032,1.025.191,1.015-.87q-101.779,0-203.542.006C110.82,147.239,110.513,147.345,110.464,147.948Zm188.719,55.58a1.514,1.514,0,0,0-1.157-.293c-67,.076-134.005-.164-201.007.13a.3.3,0,0,0-.2.123c-.186.26.322.111.029.234a.5.5,0,0,0,.509.4q100.633.01,201.266.006C298.87,204.127,299.069,204,299.183,203.528Zm.135,14.5c-1.582-.843-194.886-1.239-200.43-.749-.382.034-.819.017-.876.749ZM179.655,91.515v.277H574.874v-.277Zm87.717-62.687c2.541.417,193.835.335,195.584-.068a.471.471,0,0,0-.411-.5q-96.915-.064-193.829-.088C268.279,28.167,267.741,28.025,267.372,28.828ZM23.939,483.651l-.089.289H413.037v-.289ZM716.371,372.164l.021-.549c-.1-.1-.2-.273-.311-.282-.634-.055-1.272-.1-1.909-.095-63.8.08-127.6-.174-191.4.134a.285.285,0,0,0-.186.129c-.177.266.32.106.024.237.19.482.623.422,1,.422Q619.99,372.167,716.371,372.164ZM90.883,238.419c1.473.828,187.438,1.213,191.576.772.415-.044.79-.125.891-.772ZM26.1,469.717v.262H410.109v-.262Zm380.768,7.135v-.287H23.8v.287ZM647.5,169.073l.025-.571a6.213,6.213,0,0,0-2.9-.251q-92.017-.016-184.034-.009c-.64,0-1.281-.016-1.919.017-.458.024-1,.019-.871.814ZM272.947,253.021l.019-.551a6.266,6.266,0,0,0-2.735-.222q-91.792-.014-183.584-.008c-.64,0-1.281-.016-1.919.017-.456.023-1.009-.013-.939.763ZM231.906,435.05c-1.019-1.12-2.168-.808-3.233-.808q-91.174-.025-182.347-.015c-.64,0-1.28-.014-1.919.013-.462.02-1.007-.02-.991.81Zm282.885-77.507a5.265,5.265,0,0,0,3.642.689q90.569.023,181.138.014c.64,0,1.28.014,1.919-.01.362-.013.837.074.795-.55C700.6,357.227,519.307,357.034,514.791,357.543ZM58.761,393a5.74,5.74,0,0,0,2.925.282q88.505.018,177.011.01c.64,0,1.28.016,1.918-.012.451-.02,1,.078,1.087-.618-1.826-.394-175.394-.68-181.916-.293C59.433,392.386,58.984,392.275,58.761,393Zm379.222-84.174-.072-.286H74.1v.286Zm-147-126.026-.021-.527q-86.317,0-172.634.006c-.323,0-.625.113-.658.522C119.606,183.316,289.122,183.315,290.984,182.795Zm162.725-35.133a2.046,2.046,0,0,0,1.625.455c57.089-.077,114.179.17,171.267-.131.053,0,.126-.07.157-.125.155-.28-.323-.1-.032-.236-1.66-.545-130.4-.869-170.862-.42A2.735,2.735,0,0,0,453.709,147.661ZM298.362,168.694a5.97,5.97,0,0,0-3.186-.443q-83.6-.017-167.2-.01c-.64,0-1.28,0-1.919.012-.49.013-.982.052-.983.733C128.2,169.428,296.212,169.275,298.362,168.694Zm-111.2-91.152-.1.3h340.7v-.3Zm249.613,55.715a1.538,1.538,0,0,0,1.71.891c13.83.571,167.16.2,169.1-.394a.365.365,0,0,0-.383-.48Q522.091,133.249,436.778,133.258ZM48.232,420.855c1.708.5,165.77.581,168.06.093a.42.42,0,0,0-.36-.524q-83.509-.057-167.018-.074C48.611,420.349,48.268,420.429,48.232,420.855ZM359.213,315.622v.286H689.482v-.286Zm3.823,6.849v.28H689.6v-.28Zm1.6,7.177v.27H689.593v-.27ZM510.926,70.74l-.069-.286H191.7v.286ZM381.955,350.65c3.7.729,311.2.566,313.062,0Zm-1.025-6.784-.1-.286H69.8v.286Zm3.241-.028h308.3C690.248,343.277,386.406,343.323,384.172,343.837Zm-7.244,7.169c-3.247-.732-305.476-.58-307.3,0ZM53.853,407.053c1.414.22,150.058.426,152.718.194.276-.024.657.039.722-.547.044-.224-.275-.313-.455-.313q-76.276-.023-152.552,0C54.095,406.384,53.8,406.471,53.853,407.053Zm678.364,76.919c-4.7-.789-304.545-.574-306.176,0ZM429.01,469.721l-.024.3H734.258v-.3ZM701.387,259.845l.06-.285H398.631v.285Zm31.769,217.011.112-.3H431.248v.3ZM199.477,56.492c3.634.724,277.195.561,279.008,0Zm149.668,259.44-.012-.3H74.536v.3Zm-6.372,14.016.08-.286H69.4v.286Zm392.313,97.91-.047-.286H466.753v.286ZM337.514,364.935l.083-.289H69.868v.289ZM66.467,378.559l.1.282H312.279v-.282Zm383.2-70.033-.027.286H689.465v-.286ZM231.151,42.5l.06.3H469.723v-.3ZM731.617,413.922l.078-.284H494.146v.284ZM331.878,14.726c1.861.542,115.881.554,117.837.012a.4.4,0,0,0-.376-.5q-58.526-.021-117.052,0A.409.409,0,0,0,331.878,14.726ZM691.715,224.89c-2.758-.73-233.8-.594-235.553,0Zm-226.448,6.752c2.4.626,227.854.537,229.622,0Zm199.811-20.79-.093-.287H440.834v.287Zm-8.46-13.947c-.251-.228-.351-.4-.462-.408-.557-.042-1.118-.053-1.677-.053-72.23.083-144.46-.175-216.69.14-.064,0-.127.091-.191.139l.147.181Zm-174.44,48.652c3.642.722,214.3.56,216.128,0Zm25.863,154.1.091.285H723.166v-.285ZM441.387,189.483c4.008.776,212.883.584,214.569,0Zm-94.072-62.639v-.271H133.725v.271ZM283.043,322.758v-.294H69.734v.294ZM322.355,140.8v-.277H118.4v.277ZM517.746,386.029h203.4C719,385.475,521.005,385.348,517.746,386.029Zm-50.1-350.477c-3.4-.5-199.832-.382-201.415.049C268.24,35.909,464.861,35.929,467.646,35.552ZM650.6,175.873c-3.943-.733-196.532-.559-198.317,0ZM97.271,224.542l.006.3H295.54v-.3ZM521.43,378.576v.248H719.2v-.248ZM92.505,231.6l-.027.3H289.556v-.3ZM79.018,259.8h195.8C272.789,259.294,80.961,259.294,79.018,259.8ZM710.967,364.967c-2.785-.737-187.02-.6-188.659,0ZM250.639,386.006v-.287H62.072v.287ZM299.8,210.852l-.106-.285H111.081v.285ZM89.516,245.572l.073.289h187.19v-.289ZM111.993,196.6v.28H295.52v-.28Zm349-35,.11.282H644.334V161.6ZM455.721,21.747l-.033-.285H272.855v.285Zm146.871,105.1-.058-.289H423.078v.289Zm-473.2,27.576c4.272.76,177.315.566,179.006,0Zm93.089,273.443-.075-.286H45.819v.286Zm68.708-238.047v-.286h-176.7v.286Zm94.019,167.608c.835,1.055,1.809.812,2.709.812q40.994.02,81.989.011c.559,0,1.12.017,1.678-.012.541-.029,1.147.01,1.311-.811ZM129.019,161.589l-.058.285H302.609v-.285Zm329.227-7.142v.272H631v-.272Zm-164.9,21.417.107-.287H121.63v.287Zm319.361-35.042-.1-.286H447.121v.286Zm-401.465,273.1.091-.284H51.148v.284Zm-7.176-13.935.025-.285H56.436v.285ZM336.179,7.494v.279H446.147V7.494ZM469.8,253.069c-.871-1.122-1.9-.811-2.782-.814-7.6-.025-15.191-.015-22.787-.015q-12.713,0-25.425.011c-.98,0-2.065-.247-2.951.819Zm-6,168a2.824,2.824,0,0,0-2.563-.749c-3.117-.027-6.234-.012-9.35-.012q-17.742,0-35.484.016c-.757,0-1.665-.342-2.565.745Zm-67.2-14.389a.586.586,0,0,0,.642.547c12.558.006,25.115,0,37.771,0a1.044,1.044,0,0,0-.987-.888C431.633,406.04,397.932,406.338,396.609,406.682ZM405.982.784c3.11.56,32.268.436,34-.095A1.394,1.394,0,0,0,438.717.2C430.782-.23,408.027.073,405.982.784Zm51.163,364.129-.007-.289h-63.2v.289Zm-174.75,69.876c3.175.631,29.722.476,31.243-.091C311.969,434.063,284.876,434.011,282.395,434.789Zm62.976-112.015-.072-.3H287.713v.3Zm-55.662,98.273a2.046,2.046,0,0,0,.518.164q13.642.019,27.284.022c.41,0,.815-.042.682-.9q-13.65,0-27.387.006A1.1,1.1,0,0,0,289.709,421.048Zm-51.076-14.3c-2.99-.688-25.875-.54-27.345.071C212.961,407.428,236.207,407.485,238.633,406.743ZM308,14.782a.462.462,0,0,0-.39-.515q-13.029-.053-26.059-.06c-.32,0-.623.119-.642.531C282.722,15.243,305.934,15.278,308,14.782ZM450.864,413.926l.036-.284H403.945v.284ZM271.629,427.547l-.114.286h44.142v-.286ZM369.606,1.032c-.5-.7-.847-.819-1.249-.82q-9.315-.005-18.629,0c-.454,0-1,0-.942.815ZM494.648,357.8c.243.583.772.437,1.2.437q8.155.017,16.31,0c.464,0,1.008.077,1.058-.636C510.548,357.058,496.159,357.207,494.648,357.8ZM221.681,420.85c3.069.647,16.25.508,17.672-.085C237.648,420.155,224.064,420.111,221.681,420.85Zm153.81-63.367h-16.85a1.268,1.268,0,0,0,1.294.761C364.836,358.582,374.045,358.318,375.491,357.483ZM97.2,182.633l-.035.53h5.38c1.748,0,3.5.072,5.242-.02,1.7-.09,3.469.4,5.451-.469C110.84,182.055,98.925,182.1,97.2,182.633ZM207.57,399.653l.082.285H239.1v-.285Zm-91.378-230.9a1.79,1.79,0,0,0-1.533-.5c-4.522.08-9.047-.187-13.566.145-.206.015-.277.153-.219.351C102.542,169.339,113.9,169.4,116.193,168.749ZM389.43,421.092h14.175a.913.913,0,0,0-.941-.768C400.01,420.035,390.773,420.308,389.43,421.092ZM418.7,399.811c-3.107-.442-25.611-.369-27.321.019C393.234,400.174,415.968,400.211,418.7,399.811Zm-39.812,6.9c2.3.736,11.366.731,13.2.139C390.682,406.2,382.014,406.047,378.884,406.713Zm5.239-13.945c-2.746-.613-10.9-.529-12.516.022C373.21,393.435,381.555,393.515,384.123,392.768Zm47.335,34.768c2.773.641,21.664.589,23.528,0Zm-55.576-55.973c-2.82-.5-9.67-.425-11.355.042C365.995,372.345,373.511,372.425,375.882,371.563Zm17.971,55.969,0,.286h22.412l0-.286ZM238.259,413.9l-.026-.284H216.168v.284ZM75.59,287.877c3.755.719,10.132.477,11.152-.323C84.223,287.073,77.612,287.176,75.59,287.877ZM322.447,406.863c-2.581-.8-8.954-.7-10.335.017C313.815,407.392,319.868,407.443,322.447,406.863Zm-4.967-14.356c2.358,1.083,8.549.938,10.059,0ZM208.529,42.5l.091.3h18.932l0-.3ZM123.077,154.735l-.041-.287H106.491v.287Zm383.051,210.2c-3.459-.686-14.163-.558-15.865,0ZM98.68,175.564v.28h15.407v-.28Zm4.822-13.98-.025.285h15.267l0-.285ZM319.035,378.523c2.562.685,11.87.586,13.567,0Zm14.351,49.32v-.275h-13v.275ZM110.74,189.8v-.3H97.577v.3Zm273.6,223.821-.031.284h12.768v-.284ZM243.113,427.876l-.041-.276H230.81l0,.276ZM362.728,364.6a51.656,51.656,0,0,0,12.282,0Zm-42.793,49.288v-.27H307.471v.27ZM109.108,210.856a47.2,47.2,0,0,0-11.857,0ZM97.743,196.6v.284h11.992V196.6ZM368.561,385.726l0,.277h11.917l0-.277Zm6.619,13.94.02.285h11.992v-.285Zm2.274-20.8-.018-.285H366.393v.285Zm-58.1,6.846,0,.278h10.572l0-.278Zm73.455,6.938a14.14,14.14,0,0,0-5.514-.1A5.749,5.749,0,0,0,392.806,392.647ZM248.813,35.738a22.718,22.718,0,0,0-9.176,0ZM324.586,400a22.909,22.909,0,0,0-9.2,0Zm60.108-14.317c2.857.563,2.857.563,4.1,0ZM632.554,154.654a24.258,24.258,0,0,0,6.248-.07A17.476,17.476,0,0,0,632.554,154.654ZM247.066,434.665a5.853,5.853,0,0,0-3.854-.187C244.53,435.41,245.521,435.28,247.066,434.665ZM615.258,140.711a16.527,16.527,0,0,0,5.351-.052A13.5,13.5,0,0,0,615.258,140.711ZM548,77.689a12.681,12.681,0,0,0,5.332.024A12.837,12.837,0,0,0,548,77.689ZM303.415,413.76a14.835,14.835,0,0,0-5.652.01A15.571,15.571,0,0,0,303.415,413.76Zm80.442-42.1a3.059,3.059,0,0,0-3-.007A2.579,2.579,0,0,0,383.857,371.659Zm2.27,7.012a6.942,6.942,0,0,0-3.672.086A6.761,6.761,0,0,0,386.128,378.671ZM676.055,217.928a4.222,4.222,0,0,0,2.685-.007A3.163,3.163,0,0,0,676.055,217.928Z"/>
    <path class="cls-1" d="M6.429,658.469c1.01,1.071,2.139.792,3.2.792q341.467.023,682.934.014c.72,0,1.44,0,2.16-.01a2.351,2.351,0,0,0,1.856-.8Zm2.594,7.156.01.572a6.594,6.594,0,0,0,2.737.2q335.874.014,671.748.008c.72,0,1.441.017,2.159-.019.456-.023,1-.015.944-.763Zm.8,13.967-.014.548a6.835,6.835,0,0,0,3.184.242q257.235.021,514.47.012c.959,0,1.922.02,2.877-.052a2.676,2.676,0,0,0,2.117-.751Zm499.273,14.6c-.868-.958-1.829-.75-2.744-.75q-249.571-.016-499.142-.009c-.72,0-1.442-.022-2.158.032-.432.033-1,.015-.932.727ZM4.594,708.049a6.138,6.138,0,0,0,2.914.223q242.95.018,485.9.012c.64,0,1.281.02,1.919-.011.435-.021,1.029.137,1.011-.635-1.4-.283-488.413-.546-491.078-.26C4.954,707.41,4.611,707.441,4.594,708.049Zm6.054,21.118a6.5,6.5,0,0,0,2.857.227q230.941.015,461.882.01c.64,0,1.281.02,1.919-.015.438-.024,1.024.1.978-.9q-233.414,0-466.843.007C11.146,728.5,10.795,728.512,10.648,729.167ZM9.279,672.794v.276H679.087v-.276Zm3.78,90.972c.03.414.338.518.659.518q146.829,0,293.658-.031a.464.464,0,0,0,.392-.515C305.789,763.235,14.907,763.262,13.059,763.767Zm502.775-76.753v-.273H12.61v.273Zm-13.416,13.959v-.264H2.752v.264ZM265.637,784.516q-120.137,0-240.187,0c-.635,0-1.27.059-1.9.1a.331.331,0,0,0-.215.1c-.2.247.326.121.019.223a.68.68,0,0,0,.734.474q120.56-.024,241.12-.078C265.4,785.336,265.647,785.151,265.637,784.516Zm224.565-69.6.03-.3H6.855v.3Zm-5.058,7.153V721.8H8.9v.263ZM464.765,736l.039-.286H13.11V736Zm-15.386,7.159.057-.3H9.9v.3Zm-139.96,13.9V756.8H9.912v.259ZM12.161,749.787c1.98.485,297.408.453,299.121-.032C309.047,749.4,14.047,749.436,12.161,749.787Zm4.109,20.9c2.813.722,284.685.579,286.4,0Zm262.865,7.5-.073-.3H19.844v.3Zm270.128-98.379a.378.378,0,0,0,.356.507q61.182.025,122.363,0a.415.415,0,0,0,.4-.489C670.5,679.288,551.184,679.276,549.263,679.807Zm254.6-21.158c-2.746-.481-103.076-.415-105,.011a4.5,4.5,0,0,0,2.544.623C722.593,659.8,801.687,659.447,803.862,658.649Zm-246.27,35.274a4.667,4.667,0,0,0,2.858.425q48.356.021,96.712.012c.48,0,.961.022,1.439-.01.436-.029,1.024.136,1.032-.624C657.281,693.227,559.605,693.32,557.592,693.923ZM75.987,798.6a3.578,3.578,0,0,0,3.021.757q41.01.024,82.019.013c.48,0,.96.017,1.439-.012.455-.027,1.006.05,1.044-.758ZM563.58,707.882a2.79,2.79,0,0,0,1.864.4c27.188-.094,54.376.2,81.563-.158.061,0,.138-.079.178-.14.176-.267-.292-.1,0-.238C645.2,707.148,565.553,707.193,563.58,707.882Zm158.038-42.289c.849,1.093,1.841.8,2.746.8q33.339.028,66.678.014a15.191,15.191,0,0,0,1.677-.027c.494-.055,1.136.036,1.243-.786ZM164.457,792.13c-5-.8-135.348-.581-136.93,0ZM553.826,686.745l-.061.286h112.1v-.286Zm7.5,13.919.108.284H653.5v-.284ZM189.794,798.6c1.621.887,33.325,1.255,41.067.757.456-.029,1,.074,1.181-.757ZM81.537,805.755l-.09.286h77.174v-.286Zm560.337-90.849c-2.6-.636-73.106-.528-74.78,0ZM66.346,798.874c-2.509-.612-32.79-.568-34.591-.058.1.533.549.5.923.533C36.689,799.7,64.382,799.408,66.346,798.874Zm19.1,14.044a2.149,2.149,0,0,0,1.782.476c1.514.017,3.029.006,4.544.006,8.131,0,16.262.009,24.393-.016.76,0,1.686.343,2.343-.6C115.951,812.27,87.322,812.365,85.447,812.918Zm34.128-.082a.8.8,0,0,0,.884.549c10.29-.083,20.581.237,30.869-.17.054,0,.121-.083.155-.143.158-.278-.277-.086,0-.238C149.656,812.333,121.7,812.31,119.575,812.836Zm454.959-91.077v.284h60.489v-.284ZM385.6,749.948v-.274H325.13v.274ZM183.812,791.809v.285h51.6v-.285Zm15.341,21.241a32.005,32.005,0,0,0,6.838.342c2.312.04,4.627.071,6.937-.009,2.213-.076,4.473.354,7.042-.377C217.752,812.308,201.007,812.294,199.153,813.05Zm228.587-63.1-.124-.3H387.709v.3ZM609.9,728.564c.168.689.5.792.8.793q7.53.03,15.06.014c.394,0,.785-.154.608-.807ZM192.766,805.926c2,.4,29.326.388,31.244-.01C222.021,805.514,194.7,805.523,192.766,805.926Zm-155.073-.172c3.88.712,24.265.556,25.943,0Zm10.28,6.861c.014.993.723.748,1.214.775,5,.276,7.959.06,9.117-.775ZM406.742,757.1l-.023-.278H391.538l0,.278Zm-170.231,34.7-.113.291h14.8v-.291ZM365.67,756.765a59.318,59.318,0,0,0,12.742,0Zm-14.211.322.114-.285H339.1v.285Zm-260.8,62.64a35.856,35.856,0,0,0,9.839,0Zm33.471.272h6.966A16.981,16.981,0,0,0,124.125,820Zm82.729-.207a5.244,5.244,0,0,0,3.507.025A6.5,6.5,0,0,0,206.854,819.792Z"/>
    <path class="cls-1" d="M807.36,645.358H0v-.96H807.36Z"/>
    <path class="cls-1" d="M807.36,652.078c-.96.014-1.919.04-2.879.04q-399.716,0-799.432,0H2c.993-.76,2.04-.553,3.054-.553q312.357-.016,624.714-.01,87.239,0,174.478,0c1.04,0,2.079.026,3.119.04Z"/>
    <path class="cls-1" d="M6.506,630.9c2.275-.61,791.634-.555,793.452-.155.012.784-.6.585-1.017.607-.8.042-1.6.017-2.4.017q-393.437,0-786.873-.01C8.613,631.358,7.5,631.577,6.506,630.9Z"/>
    <path class="cls-1" d="M6.716,609.845c2.209-.618,725.626-.971,774.408-.409a2.947,2.947,0,0,1,2.072.355c-.365.186.085-.007-.061.278-.03.058-.1.137-.147.137q-387.678.523-775.356.146A.853.853,0,0,1,6.716,609.845Z"/>
    <path class="cls-1" d="M786.028,574.781c-1.961.607-771.928.616-773.956.211-.045-.774.556-.634.985-.657.718-.039,1.439-.016,2.159-.016q383.943,0,767.886.009C784.082,574.328,785.113,574.12,786.028,574.781Z"/>
    <path class="cls-1" d="M766.808,560.91c-2.292.578-744.481.592-746.476.111.01-.766.615-.576,1.032-.6.637-.044,1.279-.016,1.919-.016q370.068,0,740.136.012A5.65,5.65,0,0,1,766.808,560.91Z"/>
    <path class="cls-1" d="M21.126,539.714c1.819-.5,719.839-.862,725.023-.422.389.033.808.029.938.532-.312.1.209-.016-.012.216a.333.333,0,0,1-.216.1q-361.991.053-723.982.1a8.867,8.867,0,0,1-1.194-.074C21.561,540.142,21.457,539.985,21.126,539.714Z"/>
    <path class="cls-1" d="M729.346,490.6a.465.465,0,0,1-.394.514q-351.782.046-703.563.056a.61.61,0,0,1-.685-.513C26.5,490.151,727.231,490.1,729.346,490.6Z"/>
    <path class="cls-1" d="M22.937,525.316H726.126c-.078,1.084-.673.891-1.093.915-.718.041-1.439.015-2.159.015q-348.475,0-696.949-.006a9.874,9.874,0,0,1-2.988-.159Z"/>
    <path class="cls-1" d="M36.59,456.057c.064-.538.315-.645.528-.645q348.918-.024,697.836-.023a.509.509,0,0,1,.514.4c-.293.126.21-.028.028.235a.291.291,0,0,1-.193.126q-348.548.449-697.1.129A2.709,2.709,0,0,1,36.59,456.057Z"/>
    <path class="cls-1" d="M41.539,441.832c2.357-.707,672.985-1.091,693.105-.47.518.016,1.075-.076,1.428.268,0,.265.027.359-.008.419a.3.3,0,0,1-.2.121,8.352,8.352,0,0,1-1.175.139q-346.278-.025-692.555-.073C42.017,442.236,41.9,442.081,41.539,441.832Z"/>
    <path class="cls-1" d="M76.058,273.707c2.189-.47,625.8-.548,628.31-.169.1.778-.5.666-.93.693-.637.041-1.279.017-1.919.017q-311.026,0-622.052-.012A5.514,5.514,0,0,1,76.058,273.707Z"/>
    <path class="cls-1" d="M73.664,301.864c.067-.141.129-.388.191-.389,204.843-.45,409.687-.089,614.531-.2.386,0,.795-.021,1.034.406-.321.147.17-.02,0,.25a.3.3,0,0,1-.181.131,8.46,8.46,0,0,1-1.174.135q-307.041-.026-614.082-.075C73.874,302.122,73.768,301.953,73.664,301.864Z"/>
    <path class="cls-1" d="M88.552,287.762c2.021-.567,608.89-.7,611.6-.232-.038.688-.567.669-1.034.689-.639.027-1.28.016-1.92.016q-302.756,0-605.513-.011A5.266,5.266,0,0,1,88.552,287.762Z"/>
    <path class="cls-1" d="M141.3,119.407H598.9c-.114.891-.692.72-1.122.746-.638.038-1.279.014-1.919.014q-225.8,0-451.6-.011a6.315,6.315,0,0,1-2.958-.236Z"/>
    <path class="cls-1" d="M316.438,434.949c.127-.641.476-.689.772-.689q209.222.006,418.445.043a.411.411,0,0,1,.429.465C734.468,435.247,319.852,435.429,316.438,434.949Z"/>
    <path class="cls-1" d="M173.423,98.565c2.332-.676,386.194-1.037,406.115-.44.5.015,1.122-.225,1.463.436-.327.127.174.007-.04.245a.359.359,0,0,1-.207.116,13.922,13.922,0,0,1-1.419.119q-202.662-.015-405.324-.05C173.893,98.991,173.775,98.825,173.423,98.565Z"/>
    <path class="cls-1" d="M806.272,638.033H5.86v-.279H806.272Z"/>
    <path class="cls-1" d="M788.993,624.086H7.329V623.8H788.993Z"/>
    <path class="cls-1" d="M181.82,84.707c2.116-.624,386.643-.707,388.955-.212.013.777-.581.6-1.016.623-.639.028-1.28.009-1.92.009q-191.28,0-382.559-.01A7.136,7.136,0,0,1,181.82,84.707Z"/>
    <path class="cls-1" d="M7.807,602.7H784.044v.263H7.807Z"/>
    <path class="cls-1" d="M785.157,595.876H8.747v-.293h776.41Z"/>
    <path class="cls-1" d="M785.645,589.049H9.723v-.286H785.645Z"/>
    <path class="cls-1" d="M7.854,616.7H783.236v.291H7.854Z"/>
    <path class="cls-1" d="M786.144,581.926H10.661v-.286H786.144Z"/>
    <path class="cls-1" d="M19.356,567.686H781.7v.275H19.356Z"/>
    <path class="cls-1" d="M761.653,554.034H20.808v-.283H761.653Z"/>
    <path class="cls-1" d="M752.537,546.884H20.752V546.6H752.537Z"/>
    <path class="cls-1" d="M740.831,532.941H22.183v-.282H740.824Z"/>
    <path class="cls-1" d="M32.812,462.588H735.136v.279H32.929Z"/>
    <path class="cls-1" d="M726.608,518.994H24.1v-.281H726.608Z"/>
    <path class="cls-1" d="M727.051,511.87H25.1v-.278H727.051Z"/>
    <path class="cls-1" d="M26.07,504.758H727.561v.3H26.07Z"/>
    <path class="cls-1" d="M26.985,497.64H728.05v.282H26.985Z"/>
    <path class="cls-1" d="M735.522,448.941H39.454v-.285H735.523Z"/>
    <path class="cls-1" d="M362.063,337.049c3.517-1.044,6.877-.735,10.211-.735q158-.014,316,.008c1.041,0,2.175-.294,3.342.457C689.346,337.446,371.971,337.644,362.063,337.049Z"/>
    <path class="cls-1" d="M703.51,267H382.725c.161-.844.8-.72,1.328-.75.638-.036,1.279-.012,1.919-.012q157.264,0,314.528.011C701.5,266.247,702.546,265.995,703.51,267Z"/>
    <path class="cls-1" d="M704.068,280.938H77.377v-.282H704.068Z"/>
    <path class="cls-1" d="M74.7,294.573h614.94v.283H74.725Z"/>
    <path class="cls-1" d="M195.342,63.965a.921.921,0,0,1,1.074-.758c100.472.047,200.943-.17,301.415.121.2,0,.448.181.453.637Z"/>
    <path class="cls-1" d="M345.069,337.021c-2.88.338-273.856.291-275.733-.027.006-.722.558-.656,1.016-.675.639-.027,1.279-.012,1.919-.012q133.4,0,266.791,0C341.031,336.311,343.029,336.144,345.069,337.021Z"/>
    <path class="cls-1" d="M340.66,357.676c-.4.266-.581.5-.765.5q-134.709.031-269.419.026a.488.488,0,0,1-.5-.411c.3-.117-.217.024-.022-.23a.307.307,0,0,1,.2-.12q134.462-.066,268.925-.119A2.205,2.205,0,0,1,340.66,357.676Z"/>
    <path class="cls-1" d="M203.407,49.7c2.262-.719,251.181-1.1,268.86-.491.508.018,1.116-.18,1.453.462-.327.125.194.007-.017.247a.355.355,0,0,1-.207.1,9.361,9.361,0,0,1-1.18.127q-134.151-.016-268.3-.054C203.892,50.094,203.77,49.942,203.407,49.7Z"/>
    <path class="cls-1" d="M335.356,371.235c-.235.933-.674.893-1.052.922-6.009.467-264.305.1-265.96-.372.281-.153-.155.053-.022-.238.027-.058.082-.139.132-.146a10.64,10.64,0,0,1,1.411-.16Q202.547,371.231,335.356,371.235Z"/>
    <path class="cls-1" d="M483.18,421.243c.111-.726.5-.861.9-.886.8-.049,1.6-.046,2.4-.046q122.157,0,244.315.008a6.52,6.52,0,0,1,3.107.31c-.432.229.009.023-.12.316-.025.057-.08.139-.128.143-.631.058-1.263.148-1.895.148Q607.486,421.246,483.18,421.243Z"/>
    <path class="cls-1" d="M76.092,266.729c2.534-.679,213.783-.987,247.225-.5a7.748,7.748,0,0,1,3.272.574C324.426,267.283,78.572,267.309,76.092,266.729Z"/>
    <path class="cls-1" d="M501.459,406.9a2.476,2.476,0,0,1,2.174-.566c35.319-.536,221.68-.17,223.438.429-.29.136.184-.034.014.238-.035.056-.107.128-.163.128-74.46.335-148.921.059-223.382.143A3.213,3.213,0,0,1,501.459,406.9Z"/>
    <path class="cls-1" d="M473.506,238.411H696.751c-.029.862-.593.759-1.041.783-.558.03-1.119.012-1.679.012q-108.8,0-217.6-.011C475.457,239.195,474.4,239.451,473.506,238.411Z"/>
    <path class="cls-1" d="M669.984,218.194q-110.952,0-221.807,0c-.377,0-.808.045-.982-.444.3-.122-.2.014,0-.239a.3.3,0,0,1,.194-.116c73.814-.272,147.628-.057,221.442-.115a2.693,2.693,0,0,1,.712.081.883.883,0,0,1,.356.279C669.939,217.684,669.923,217.788,669.984,218.194Z"/>
    <path class="cls-1" d="M437.091,203.5c3.1-.43,217.639-.343,219.4.024-.049.721-.617.6-1.059.624-.638.033-1.279.013-1.919.013q-106.54,0-213.08-.015C439.462,204.151,438.4,204.467,437.091,203.5Z"/>
    <path class="cls-1" d="M158.7,112.617H595.425C593.8,113.135,161.525,113.263,158.7,112.617Z"/>
    <path class="cls-1" d="M167.679,105.514H588.807v.273H167.679Z"/>
    <path class="cls-1" d="M489.7,252.634c1.913-.563,208.09-.558,209.952.006-.284.148.163-.035,0,.238a.387.387,0,0,1-.16.144,4.869,4.869,0,0,1-2.126.165q-103.628-.02-207.255-.068c-.129,0-.27-.148-.381-.253C489.682,252.826,489.706,252.714,489.7,252.634Z"/>
    <path class="cls-1" d="M721.955,392.9c-1.9.576-177.95.908-207.3.384-.583-.01-1.235.158-1.69-.272.019-.616.393-.631.679-.631q104.165-.014,208.33-.009Q721.965,392.634,721.955,392.9Z"/>
    <path class="cls-1" d="M653.973,183.01H446.731c-.1-.762.452-.734.9-.761.638-.039,1.279-.018,1.919-.018q100.652,0,201.3.018C651.785,182.249,652.873,181.853,653.973,183.01Z"/>
    <path class="cls-1" d="M126.064,134c0-.5.218-.661.433-.706,1.156-.24,204.7-.061,205.976.158-.064.665-.575.674-1.051.69-.719.023-1.439.016-2.159.016q-100.162,0-200.325-.007A9.38,9.38,0,0,1,126.064,134Z"/>
    <path class="cls-1" d="M110.464,147.948c.049-.6.356-.709.677-.709q101.767-.009,203.542-.006c.01,1.061-.613.838-1.015.87-.636.05-1.278.017-1.918.017q-99.186,0-198.372-.007A9.034,9.034,0,0,1,110.464,147.948Z"/>
    <path class="cls-1" d="M299.183,203.528c-.113.477-.313.6-.558.6q-100.633,0-201.266-.006a.5.5,0,0,1-.509-.4c.294-.124-.215.025-.028-.235a.3.3,0,0,1,.2-.123c67-.293,134-.054,201.007-.13A1.514,1.514,0,0,1,299.183,203.528Z"/>
    <path class="cls-1" d="M299.317,218.028H98.011c.057-.732.494-.715.876-.749C104.431,216.789,297.735,217.185,299.317,218.028Z"/>
    <path class="cls-1" d="M179.655,91.515H574.874v.277H179.655Z"/>
    <path class="cls-1" d="M267.372,28.828c.369-.8.907-.661,1.343-.66q96.915.027,193.829.088a.472.472,0,0,1,.413.5C461.207,29.162,269.913,29.244,267.372,28.828Z"/>
    <path class="cls-1" d="M23.939,483.651h389.1v.289H23.85Z"/>
    <path class="cls-1" d="M716.371,372.164q-96.38,0-192.761,0c-.378,0-.811.06-1-.422.3-.132-.2.029-.024-.237a.285.285,0,0,1,.186-.129c63.8-.308,127.6-.055,191.4-.134.637,0,1.274.04,1.909.095.111.01.208.184.311.282Z"/>
    <path class="cls-1" d="M90.883,238.419H283.35c-.1.647-.476.727-.891.772C278.32,239.633,92.356,239.248,90.883,238.419Z"/>
    <path class="cls-1" d="M26.1,469.717H410.109v.262H26.1Z"/>
    <path class="cls-1" d="M406.871,476.852H23.8v-.287H406.871Z"/>
    <path class="cls-1" d="M647.5,169.073H457.8c-.126-.8.413-.791.871-.814.638-.033,1.279-.017,1.919-.017q92.017,0,184.034.009a6.213,6.213,0,0,1,2.9.251Z"/>
    <path class="cls-1" d="M272.947,253.021H83.788c-.07-.776.482-.74.939-.763.638-.033,1.279-.017,1.919-.017q91.792,0,183.584.008a6.266,6.266,0,0,1,2.735.222Z"/>
    <path class="cls-1" d="M231.906,435.05H43.416c-.016-.83.529-.79.991-.81.639-.028,1.279-.013,1.919-.013q91.174,0,182.347.015C229.739,434.242,230.887,433.93,231.906,435.05Z"/>
    <path class="cls-1" d="M514.791,357.543c4.516-.509,185.811-.317,187.494.143.042.624-.433.537-.795.55-.639.023-1.279.01-1.919.01q-90.569,0-181.138-.014A5.265,5.265,0,0,1,514.791,357.543Z"/>
    <path class="cls-1" d="M58.761,393c.223-.72.672-.61,1.026-.631,6.522-.387,180.09-.1,181.916.293-.084.7-.637.6-1.087.618-.638.029-1.279.012-1.918.012q-88.505,0-177.011-.01A5.74,5.74,0,0,1,58.761,393Z"/>
    <path class="cls-1" d="M437.983,308.821H74.1v-.286H437.911Z"/>
    <path class="cls-1" d="M290.984,182.795c-1.863.52-171.379.521-173.313,0,.033-.409.335-.522.658-.522q86.317-.009,172.634-.006Z"/>
    <path class="cls-1" d="M453.709,147.661a2.735,2.735,0,0,1,2.155-.458c40.462-.449,169.2-.124,170.862.42-.291.133.187-.044.032.236-.031.055-.1.125-.157.125-57.089.3-114.178.054-171.267.131A2.046,2.046,0,0,1,453.709,147.661Z"/>
    <path class="cls-1" d="M298.362,168.694c-2.151.581-170.167.734-173.292.293,0-.682.493-.721.983-.733.639-.017,1.279-.012,1.919-.012q83.6,0,167.2.01A5.97,5.97,0,0,1,298.362,168.694Z"/>
    <path class="cls-1" d="M187.165,77.543h340.6v.3h-340.7Z"/>
    <path class="cls-1" d="M436.778,133.258q85.41,0,170.432.016a.365.365,0,0,1,.383.48c-1.944.6-155.274.965-169.1.394A1.538,1.538,0,0,1,436.778,133.258Z"/>
    <path class="cls-1" d="M48.232,420.855c.036-.426.379-.506.682-.505q83.509.02,167.018.074a.42.42,0,0,1,.36.524C214,421.435,49.94,421.351,48.232,420.855Z"/>
    <path class="cls-1" d="M359.213,315.622H689.482v.286H359.213Z"/>
    <path class="cls-1" d="M363.035,322.471H689.6v.28H363.036Z"/>
    <path class="cls-1" d="M364.639,329.648H689.593v.27H364.639Z"/>
    <path class="cls-1" d="M510.926,70.74H191.7v-.286H510.857Z"/>
    <path class="cls-1" d="M381.955,350.65H695.017C693.152,351.216,385.657,351.379,381.955,350.65Z"/>
    <path class="cls-1" d="M380.93,343.866H69.8v-.286H380.83Z"/>
    <path class="cls-1" d="M384.172,343.837c2.234-.515,306.076-.56,308.3,0Z"/>
    <path class="cls-1" d="M376.928,351.006H69.623C71.452,350.426,373.681,350.274,376.928,351.006Z"/>
    <path class="cls-1" d="M53.853,407.053c-.055-.581.242-.669.432-.669q76.276-.02,152.552,0c.181,0,.5.09.455.313-.064.586-.445.523-.722.547C203.911,407.479,55.267,407.273,53.853,407.053Z"/>
    <path class="cls-1" d="M732.217,483.972H426.04C427.672,483.4,727.519,483.183,732.217,483.972Z"/>
    <path class="cls-1" d="M429.01,469.721H734.259v.3H428.985Z"/>
    <path class="cls-1" d="M701.387,259.845H398.631v-.285H701.447Z"/>
    <path class="cls-1" d="M733.156,476.856H431.248v-.3h302.02Z"/>
    <path class="cls-1" d="M199.477,56.492H478.486C476.672,57.053,203.111,57.216,199.477,56.492Z"/>
    <path class="cls-1" d="M349.146,315.933H74.536v-.3h274.6Z"/>
    <path class="cls-1" d="M342.773,329.948H69.4v-.286H342.854Z"/>
    <path class="cls-1" d="M735.086,427.858H466.753v-.286H735.039Z"/>
    <path class="cls-1" d="M337.514,364.935H69.868v-.289H337.6Z"/>
    <path class="cls-1" d="M66.467,378.559H312.279v.282H66.571Z"/>
    <path class="cls-1" d="M449.672,308.525H689.465v.286H449.646Z"/>
    <path class="cls-1" d="M231.151,42.5H469.723v.3H231.21Z"/>
    <path class="cls-1" d="M731.617,413.922H494.146v-.284H731.695Z"/>
    <path class="cls-1" d="M331.879,14.727a.408.408,0,0,1,.407-.483q58.526-.025,117.052,0a.4.4,0,0,1,.376.5C447.759,15.28,333.739,15.269,331.879,14.727Z"/>
    <path class="cls-1" d="M691.715,224.89H456.162C457.915,224.3,688.957,224.16,691.715,224.89Z"/>
    <path class="cls-1" d="M465.267,231.643H694.89C693.121,232.179,467.671,232.269,465.267,231.643Z"/>
    <path class="cls-1" d="M665.079,210.852H440.834v-.287H664.986Z"/>
    <path class="cls-1" d="M656.619,196.9H437.744l-.147-.181c.064-.048.127-.139.191-.139,72.23-.315,144.46-.057,216.69-.14.559,0,1.12.011,1.677.053C656.268,196.506,656.368,196.677,656.619,196.9Z"/>
    <path class="cls-1" d="M482.178,245.557H698.306C696.476,246.117,485.821,246.279,482.178,245.557Z"/>
    <path class="cls-1" d="M508.042,399.652H723.165v.285H508.132Z"/>
    <path class="cls-1" d="M441.387,189.483H655.956C654.27,190.067,445.4,190.259,441.387,189.483Z"/>
    <path class="cls-1" d="M347.316,126.843H133.725v-.271h213.59Z"/>
    <path class="cls-1" d="M283.043,322.758H69.734v-.294H283.043Z"/>
    <path class="cls-1" d="M322.355,140.8H118.4v-.277H322.355Z"/>
    <path class="cls-1" d="M517.746,386.029c3.26-.681,201.252-.555,203.4,0Z"/>
    <path class="cls-1" d="M467.646,35.552c-2.784.377-199.406.357-201.415.049C267.813,35.17,464.243,35.053,467.646,35.552Z"/>
    <path class="cls-1" d="M650.6,175.873H452.278C454.064,175.315,646.653,175.14,650.6,175.873Z"/>
    <path class="cls-1" d="M97.271,224.542H295.54v.3H97.277Z"/>
    <path class="cls-1" d="M521.43,378.576H719.2v.248H521.431Z"/>
    <path class="cls-1" d="M92.505,231.6h197.05v.3H92.479Z"/>
    <path class="cls-1" d="M79.018,259.8c1.943-.509,193.771-.509,195.8,0Z"/>
    <path class="cls-1" d="M710.967,364.967H522.308C523.947,364.37,708.182,364.23,710.967,364.967Z"/>
    <path class="cls-1" d="M250.639,386.006H62.072v-.287H250.639Z"/>
    <path class="cls-1" d="M299.8,210.852H111.081v-.285H299.7Z"/>
    <path class="cls-1" d="M89.516,245.572H276.779v.289H89.589Z"/>
    <path class="cls-1" d="M111.993,196.6H295.52v.28H111.993Z"/>
    <path class="cls-1" d="M460.989,161.6H644.333v.282H461.1Z"/>
    <path class="cls-1" d="M455.721,21.747H272.855v-.285H455.688Z"/>
    <path class="cls-1" d="M602.591,126.843H423.079v-.289H602.533Z"/>
    <path class="cls-1" d="M129.393,154.419H308.4C306.708,154.985,133.665,155.179,129.393,154.419Z"/>
    <path class="cls-1" d="M222.481,427.862H45.819v-.286H222.407Z"/>
    <path class="cls-1" d="M291.189,189.815h-176.7v-.286h176.7Z"/>
    <path class="cls-1" d="M385.208,357.423H472.9c-.164.821-.77.782-1.311.811-.558.029-1.118.012-1.678.012q-40.994,0-81.989-.011C387.017,358.235,386.043,358.478,385.208,357.423Z"/>
    <path class="cls-1" d="M129.019,161.589h173.59v.285H128.96Z"/>
    <path class="cls-1" d="M458.246,154.447H631v.272H458.246Z"/>
    <path class="cls-1" d="M293.346,175.864H121.631v-.287H293.453Z"/>
    <path class="cls-1" d="M612.707,140.822H447.121v-.286H612.6Z"/>
    <path class="cls-1" d="M211.242,413.919H51.148v-.284H211.332Z"/>
    <path class="cls-1" d="M204.066,399.985H56.436V399.7H204.091Z"/>
    <path class="cls-1" d="M336.179,7.494H446.147v.279H336.18Z"/>
    <path class="cls-1" d="M469.8,253.069H415.855c.886-1.065,1.972-.817,2.951-.819q12.713-.025,25.425-.011c7.6,0,15.191-.01,22.787.015C467.9,252.258,468.929,251.947,469.8,253.069Z"/>
    <path class="cls-1" d="M463.805,421.07H413.843c.9-1.087,1.808-.744,2.565-.745q17.742-.034,35.484-.016c3.117,0,6.234-.015,9.35.012A2.824,2.824,0,0,1,463.805,421.07Z"/>
    <path class="cls-1" d="M396.609,406.682c1.323-.344,35.023-.642,37.426-.336a1.044,1.044,0,0,1,.987.888c-12.656,0-25.214,0-37.771,0A.586.586,0,0,1,396.609,406.682Z"/>
    <path class="cls-1" d="M405.982.784C408.027.073,430.782-.23,438.717.2a1.394,1.394,0,0,1,1.264.493C438.25,1.22,409.092,1.344,405.982.784Z"/>
    <path class="cls-1" d="M457.145,364.913h-63.21v-.289h63.2Z"/>
    <path class="cls-1" d="M282.395,434.789c2.481-.778,29.574-.726,31.243-.091C312.117,435.265,285.57,435.42,282.395,434.789Z"/>
    <path class="cls-1" d="M345.371,322.774H287.713v-.3H345.3Z"/>
    <path class="cls-1" d="M289.709,421.048a1.1,1.1,0,0,1,1.1-.71q13.715-.012,27.387-.006c.133.861-.273.9-.682.9q-13.642,0-27.284-.022A2.046,2.046,0,0,1,289.709,421.048Z"/>
    <path class="cls-1" d="M238.633,406.743c-2.427.742-25.672.685-27.345.071C212.758,406.2,235.643,406.054,238.633,406.743Z"/>
    <path class="cls-1" d="M308,14.781c-2.064.5-25.275.462-27.092-.043.018-.413.322-.532.642-.531q13.029.013,26.059.06A.463.463,0,0,1,308,14.781Z"/>
    <path class="cls-1" d="M450.864,413.926H403.945v-.284H450.9Z"/>
    <path class="cls-1" d="M271.629,427.547h44.028v.286H271.515Z"/>
    <path class="cls-1" d="M369.606,1.032h-20.82c-.06-.818.488-.814.942-.815q9.315-.017,18.629,0C368.76.213,369.111.328,369.606,1.032Z"/>
    <path class="cls-1" d="M494.648,357.8c1.512-.594,15.9-.742,18.571-.2-.051.712-.594.635-1.059.636q-8.155.01-16.31,0C495.42,358.237,494.891,358.383,494.648,357.8Z"/>
    <path class="cls-1" d="M221.681,420.85c2.383-.739,15.966-.695,17.672-.085C237.931,421.357,224.75,421.5,221.681,420.85Z"/>
    <path class="cls-1" d="M375.491,357.483c-1.446.835-10.655,1.1-15.555.761a1.268,1.268,0,0,1-1.294-.761Z"/>
    <path class="cls-1" d="M97.2,182.633c1.724-.534,13.639-.578,16.038.041-1.981.867-3.755.379-5.451.469-1.743.092-3.494.02-5.242.02h-5.38Z"/>
    <path class="cls-1" d="M207.57,399.653H239.1v.285H207.652Z"/>
    <path class="cls-1" d="M116.193,168.749c-2.3.648-13.65.59-15.318-.007-.058-.2.013-.336.219-.351,4.519-.332,9.044-.065,13.566-.145A1.79,1.79,0,0,1,116.193,168.749Z"/>
    <path class="cls-1" d="M389.43,421.092c1.343-.784,10.58-1.057,13.234-.768a.913.913,0,0,1,.941.768Z"/>
    <path class="cls-1" d="M418.7,399.811c-2.728.4-25.462.362-27.321.019C393.085,399.442,415.589,399.37,418.7,399.811Z"/>
    <path class="cls-1" d="M378.884,406.713c3.13-.666,11.8-.508,13.2.139C390.25,407.444,381.186,407.448,378.884,406.713Z"/>
    <path class="cls-1" d="M384.123,392.768c-2.569.748-10.913.668-12.516.022C373.227,392.238,381.377,392.154,384.123,392.768Z"/>
    <path class="cls-1" d="M431.458,427.536h23.528C453.122,428.125,434.231,428.177,431.458,427.536Z"/>
    <path class="cls-1" d="M375.882,371.563c-2.371.862-9.888.782-11.355.042C366.212,371.138,373.062,371.065,375.882,371.563Z"/>
    <path class="cls-1" d="M393.853,427.532H416.26l0,.286H393.849Z"/>
    <path class="cls-1" d="M238.259,413.9H216.168v-.284h22.065Z"/>
    <path class="cls-1" d="M75.59,287.877c2.021-.7,8.632-.8,11.152-.323C85.723,288.354,79.345,288.6,75.59,287.877Z"/>
    <path class="cls-1" d="M322.447,406.863c-2.579.58-8.632.528-10.335.017C313.493,406.161,319.866,406.063,322.447,406.863Z"/>
    <path class="cls-1" d="M317.48,392.507H327.54C326.029,393.445,319.838,393.59,317.48,392.507Z"/>
    <path class="cls-1" d="M208.529,42.5H227.55l0,.3H208.62Z"/>
    <path class="cls-1" d="M123.077,154.735H106.492v-.287h16.544Z"/>
    <path class="cls-1" d="M506.127,364.937H490.262C491.965,364.379,502.668,364.251,506.127,364.937Z"/>
    <path class="cls-1" d="M98.68,175.564h15.407v.28H98.681Z"/>
    <path class="cls-1" d="M103.5,161.584h15.239l0,.285H103.477Z"/>
    <path class="cls-1" d="M319.035,378.523H332.6C330.905,379.109,321.6,379.207,319.035,378.523Z"/>
    <path class="cls-1" d="M333.386,427.842h-13v-.275h13Z"/>
    <path class="cls-1" d="M110.74,189.8H97.577v-.3H110.74Z"/>
    <path class="cls-1" d="M384.338,413.623h12.738v.284H384.307Z"/>
    <path class="cls-1" d="M243.113,427.876h-12.3l0-.276h12.261Z"/>
    <path class="cls-1" d="M362.728,364.6h12.282A51.656,51.656,0,0,1,362.728,364.6Z"/>
    <path class="cls-1" d="M319.935,413.893H307.469v-.27h12.466Z"/>
    <path class="cls-1" d="M109.108,210.856H97.251A47.2,47.2,0,0,1,109.108,210.856Z"/>
    <path class="cls-1" d="M97.743,196.6h11.992v.284H97.742Z"/>
    <path class="cls-1" d="M368.561,385.726h11.917l0,.277H368.559Z"/>
    <path class="cls-1" d="M375.18,399.666H387.19v.285H375.2Z"/>
    <path class="cls-1" d="M377.454,378.863h-11.06v-.285h11.042Z"/>
    <path class="cls-1" d="M319.35,385.708h10.572l0,.278H319.353Z"/>
    <path class="cls-1" d="M392.806,392.647a5.749,5.749,0,0,1-5.514-.1A14.14,14.14,0,0,1,392.806,392.647Z"/>
    <path class="cls-1" d="M248.813,35.738h-9.176A22.718,22.718,0,0,1,248.813,35.738Z"/>
    <path class="cls-1" d="M324.586,400h-9.2A22.909,22.909,0,0,1,324.586,400Z"/>
    <path class="cls-1" d="M384.695,385.687h4.1C387.552,386.249,387.552,386.249,384.695,385.687Z"/>
    <path class="cls-1" d="M632.554,154.654a17.476,17.476,0,0,1,6.248-.07A24.258,24.258,0,0,1,632.554,154.654Z"/>
    <path class="cls-1" d="M247.066,434.665c-1.545.615-2.536.745-3.854-.187A5.853,5.853,0,0,1,247.066,434.665Z"/>
    <path class="cls-1" d="M615.258,140.711a13.5,13.5,0,0,1,5.351-.052A16.527,16.527,0,0,1,615.258,140.711Z"/>
    <path class="cls-1" d="M548,77.689a12.837,12.837,0,0,1,5.332.024A12.681,12.681,0,0,1,548,77.689Z"/>
    <path class="cls-1" d="M303.415,413.76a15.571,15.571,0,0,1-5.652.01A14.835,14.835,0,0,1,303.415,413.76Z"/>
    <path class="cls-1" d="M383.857,371.659a2.579,2.579,0,0,1-3-.007A3.059,3.059,0,0,1,383.857,371.659Z"/>
    <path class="cls-1" d="M386.128,378.671a6.761,6.761,0,0,1-3.672.086A6.942,6.942,0,0,1,386.128,378.671Z"/>
    <path class="cls-1" d="M676.055,217.928a3.163,3.163,0,0,1,2.685-.007A4.222,4.222,0,0,1,676.055,217.928Z"/>
    <path class="cls-1" d="M6.429,658.469H696.58a2.351,2.351,0,0,1-1.856.8c-.72.011-1.44.01-2.16.01q-341.467,0-682.934-.014C8.568,659.261,7.439,659.54,6.429,658.469Z"/>
    <path class="cls-1" d="M9.023,665.625h677.6c.052.748-.488.74-.944.763-.718.036-1.439.019-2.159.019q-335.874,0-671.748-.008a6.594,6.594,0,0,1-2.737-.2Z"/>
    <path class="cls-1" d="M9.823,679.592H532.457a2.676,2.676,0,0,1-2.117.751c-.955.072-1.918.052-2.877.052q-257.235,0-514.47-.012a6.835,6.835,0,0,1-3.184-.242Z"/>
    <path class="cls-1" d="M509.1,694.187H4.118c-.068-.712.5-.694.932-.727.716-.054,1.439-.032,2.158-.032q249.571,0,499.142.009C507.266,693.437,508.227,693.228,509.1,694.187Z"/>
    <path class="cls-1" d="M4.594,708.049c.017-.607.36-.639.666-.672,2.665-.286,489.68-.023,491.078.26.017.773-.576.614-1.011.635-.638.031-1.279.011-1.919.011q-242.95,0-485.9-.012A6.138,6.138,0,0,1,4.594,708.049Z"/>
    <path class="cls-1" d="M10.648,729.167c.147-.654.5-.67.792-.67q233.425-.011,466.843-.007c.046.995-.54.875-.978.9-.638.035-1.279.015-1.919.015q-230.941,0-461.882-.01A6.5,6.5,0,0,1,10.648,729.167Z"/>
    <path class="cls-1" d="M9.279,672.794H679.087v.276H9.279Z"/>
    <path class="cls-1" d="M13.059,763.767c1.848-.5,292.73-.532,294.707-.029a.463.463,0,0,1-.39.516q-146.829.033-293.658.031C13.4,764.284,13.089,764.181,13.059,763.767Z"/>
    <path class="cls-1" d="M515.834,687.014H12.61v-.273H515.834Z"/>
    <path class="cls-1" d="M502.418,700.973H2.752v-.264H502.418Z"/>
    <path class="cls-1" d="M265.637,784.516c.011.634-.239.82-.434.82q-120.56.058-241.12.078a.68.68,0,0,1-.734-.474c.307-.1-.222.024-.019-.223a.331.331,0,0,1,.215-.1c.635-.04,1.27-.1,1.9-.1Q145.522,784.514,265.637,784.516Z"/>
    <path class="cls-1" d="M490.2,714.914H6.855v-.3H490.232Z"/>
    <path class="cls-1" d="M485.144,722.067H8.9V721.8H485.144Z"/>
    <path class="cls-1" d="M464.765,736H13.11v-.286H464.8Z"/>
    <path class="cls-1" d="M449.379,743.158H9.9v-.3H449.437Z"/>
    <path class="cls-1" d="M309.419,757.061H9.912V756.8H309.42Z"/>
    <path class="cls-1" d="M12.161,749.787c1.886-.351,296.886-.382,299.121-.032C309.569,750.24,14.141,750.272,12.161,749.787Z"/>
    <path class="cls-1" d="M16.27,770.684h286.4C300.955,771.263,19.083,771.406,16.27,770.684Z"/>
    <path class="cls-1" d="M279.135,778.186H19.844v-.3H279.062Z"/>
    <path class="cls-1" d="M549.263,679.807c1.921-.53,121.242-.518,123.118.019a.415.415,0,0,1-.4.489q-61.182.024-122.363,0A.378.378,0,0,1,549.263,679.807Z"/>
    <path class="cls-1" d="M803.862,658.649c-2.175.8-81.269,1.155-102.458.634a4.5,4.5,0,0,1-2.544-.623C700.786,658.233,801.116,658.167,803.862,658.649Z"/>
    <path class="cls-1" d="M557.592,693.923c2.013-.6,99.689-.7,102.042-.2-.008.76-.6.595-1.032.624-.478.032-.959.01-1.439.01q-48.356,0-96.712-.012A4.667,4.667,0,0,1,557.592,693.923Z"/>
    <path class="cls-1" d="M75.987,798.6h87.522c-.038.808-.589.73-1.044.758-.478.029-.959.012-1.439.012q-41.01,0-82.019-.013A3.578,3.578,0,0,1,75.987,798.6Z"/>
    <path class="cls-1" d="M563.58,707.882c1.972-.689,81.624-.733,83.6-.137-.287.141.181-.029,0,.238-.04.061-.117.139-.178.14-27.187.36-54.375.064-81.563.158A2.79,2.79,0,0,1,563.58,707.882Z"/>
    <path class="cls-1" d="M721.619,665.593h72.344c-.107.822-.748.731-1.243.786a15.191,15.191,0,0,1-1.677.027q-33.339,0-66.678-.014C723.46,666.391,722.467,666.686,721.619,665.593Z"/>
    <path class="cls-1" d="M164.457,792.13H27.527C29.109,791.549,159.461,791.332,164.457,792.13Z"/>
    <path class="cls-1" d="M553.826,686.745h112.04v.286h-112.1Z"/>
    <path class="cls-1" d="M561.327,700.664H653.5v.284H561.435Z"/>
    <path class="cls-1" d="M189.794,798.6h42.248c-.184.831-.725.727-1.181.757C223.119,799.858,191.415,799.491,189.794,798.6Z"/>
    <path class="cls-1" d="M81.537,805.755h77.084v.286H81.447Z"/>
    <path class="cls-1" d="M641.875,714.906h-74.78C568.768,714.378,639.276,714.27,641.875,714.906Z"/>
    <path class="cls-1" d="M66.346,798.874c-1.964.534-29.657.83-33.667.475-.375-.033-.82,0-.923-.533C33.556,798.307,63.838,798.263,66.346,798.874Z"/>
    <path class="cls-1" d="M85.447,812.918c1.875-.553,30.5-.648,33.061-.138-.656.947-1.583.6-2.343.6-8.131.025-16.262.016-24.393.016-1.515,0-3.029.011-4.544-.006A2.149,2.149,0,0,1,85.447,812.918Z"/>
    <path class="cls-1" d="M119.575,812.836c2.125-.526,30.081-.5,31.913,0-.282.152.153-.04,0,.238-.034.06-.1.141-.155.143-10.288.407-20.579.086-30.869.17A.8.8,0,0,1,119.575,812.836Z"/>
    <path class="cls-1" d="M574.534,721.759h60.489v.284H574.534Z"/>
    <path class="cls-1" d="M385.6,749.948H325.13v-.274H385.6Z"/>
    <path class="cls-1" d="M183.812,791.809h51.6v.285h-51.6Z"/>
    <path class="cls-1" d="M199.153,813.05c1.855-.756,18.6-.742,20.817-.045-2.569.731-4.829.3-7.042.377-2.31.08-4.625.049-6.937.009A32.005,32.005,0,0,1,199.153,813.05Z"/>
    <path class="cls-1" d="M427.74,749.945h-40.03v-.3h39.907Z"/>
    <path class="cls-1" d="M609.9,728.564h16.468c.177.653-.214.806-.608.807q-7.53.017-15.06-.014C610.4,729.355,610.068,729.253,609.9,728.564Z"/>
    <path class="cls-1" d="M192.766,805.926c1.934-.4,29.254-.412,31.244-.01C222.093,806.313,194.769,806.322,192.766,805.926Z"/>
    <path class="cls-1" d="M37.694,805.754H63.636C61.958,806.31,41.574,806.465,37.694,805.754Z"/>
    <path class="cls-1" d="M47.974,812.615H58.3c-1.158.835-4.116,1.051-9.117.775C48.7,813.363,47.988,813.608,47.974,812.615Z"/>
    <path class="cls-1" d="M406.742,757.1h-15.2l0-.278h15.181Z"/>
    <path class="cls-1" d="M236.511,791.807H251.2v.291H236.4Z"/>
    <path class="cls-1" d="M365.67,756.765h12.742A59.318,59.318,0,0,1,365.67,756.765Z"/>
    <path class="cls-1" d="M351.459,757.087H339.1V756.8h12.476Z"/>
    <path class="cls-1" d="M90.654,819.727h9.839A35.856,35.856,0,0,1,90.654,819.727Z"/>
    <path class="cls-1" d="M124.125,820a16.981,16.981,0,0,1,6.966,0Z"/>
    <path class="cls-1" d="M206.854,819.792a6.5,6.5,0,0,1,3.507.025A5.244,5.244,0,0,1,206.854,819.792Z"/>
  </g>
</svg>
